[center]

 
http://www.imdb.com/title/tt1079360/

The.Girl.from.the.Naked.Eye.2011.BRRip.XviD-REMIS.avi

Format                           : AVI
Format/Info                      : Audio Video Interleave
File size                        : 698 MiB
Duration                         : 1h 23mn
Overall bit rate                 : 1 165 Kbps

Video
ID                               : 0
Format                           : MPEG-4 Visual
Format profile                   : Simple@L1
Format settings, BVOP            : No
Format settings, QPel            : No
Format settings, GMC             : No warppoints
Format settings, Matrix          : Default (H.263)
Codec ID                         : XVID
Codec ID/Hint                    : XviD
Duration                         : 1h 23mn
Bit rate                         : 900 Kbps
Width                            : 720 pixels
Height                           : 400 pixels
Display aspect ratio             : 16/9
Frame rate                       : 23.976 fps
Resolution                       : 24 bits
Colorimetry                      : 4:2:0
Scan type                        : Progressive
Bits/(Pixel*Frame)               : 0.130
Stream size                      : 539 MiB (77%)
Writing library                  : Lavc52.32.0

Audio
ID                               : 1
Format                           : MPEG Audio
Format version                   : Version 1
Format profile                   : Layer 3
Codec ID                         : 55
Codec ID/Hint                    : MP3
Duration                         : 1h 23mn
Bit rate mode                    : Constant
Bit rate                         : 256 Kbps
Channel(s)                       : 2 channels
Sampling rate                    : 44.1 KHz
Resolution                       : 16 bits
Stream size                      : 153 MiB (22%)
Alignment                        : Split accross interleaves
Interleave, duration             : 42 ms (1.00 video frame)
Interleave, preload duration     : 500 ms
Writing library                  : LAME3.98.4
Source                           : OCW(thx)

[img]http://img856.imageshack.us/img856/9991/53124581.jpg[/img]
[img]http://img69.imageshack.us/img69/5229/69063260.jpg[/img]
[img]http://img851.imageshack.us/img851/1168/21352644.jpg[/img]
[img]http://img442.imageshack.us/img442/9627/21248173.jpg[/img][/center]